<svg viewBox="0 0 1200 630" xmlns="http://www.w3.org/2000/svg">
  <!-- Background -->
  <rect width="1200" height="630" fill="#1d2c1d"/>

  <!-- Connection lines -->
  <line x1="300" y1="315" x2="600" y2="200" stroke="#9b9d7f" stroke-width="2" opacity="0.6"/>
  <line x1="300" y1="315" x2="600" y2="350" stroke="#9b9d7f" stroke-width="2" opacity="0.6"/>
  <line x1="300" y1="315" x2="600" y2="480" stroke="#9b9d7f" stroke-width="2" opacity="0.6"/>
  <line x1="600" y1="315" x2="850" y2="180" stroke="#9b9d7f" stroke-width="2" opacity="0.6"/>
  <line x1="600" y1="315" x2="900" y2="280" stroke="#9b9d7f" stroke-width="2" opacity="0.6"/>
  <line x1="600" y1="315" x2="850" y2="480" stroke="#9b9d7f" stroke-width="2" opacity="0.6"/>
  <line x1="600" y1="315" x2="950" y2="450" stroke="#9b9d7f" stroke-width="2" opacity="0.6"/>

  <!-- Outer nodes (cream/tan) -->
  <circle cx="150" cy="315" r="18" fill="#d4c8b0"/>
  <circle cx="400" cy="100" r="12" fill="#d4c8b0"/>
  <circle cx="500" cy="150" r="14" fill="#d4c8b0"/>
  <circle cx="750" cy="80" r="10" fill="#d4c8b0"/>
  <circle cx="850" cy="180" r="13" fill="#d4c8b0"/>
  <circle cx="950" cy="120" r="11" fill="#d4c8b0"/>
  <circle cx="1050" cy="200" r="12" fill="#d4c8b0"/>
  <circle cx="900" cy="280" r="14" fill="#d4c8b0"/>
  <circle cx="1000" cy="350" r="11" fill="#d4c8b0"/>
  <circle cx="250" cy="480" r="13" fill="#d4c8b0"/>
  <circle cx="450" cy="520" r="12" fill="#d4c8b0"/>
  <circle cx="600" cy="480" r="14" fill="#d4c8b0"/>
  <circle cx="750" cy="540" r="11" fill="#d4c8b0"/>
  <circle cx="850" cy="480" r="13" fill="#d4c8b0"/>
  <circle cx="950" cy="450" r="12" fill="#d4c8b0"/>
  <circle cx="1100" cy="520" r="10" fill="#d4c8b0"/>

  <!-- Center node (terracotta/orange) -->
  <circle cx="600" cy="315" r="28" fill="#C4552A"/>
</svg>
