<svg xmlns="http://www.w3.org/2000/svg" xmlns:xlink="http://www.w3.org/1999/xlink" width="1366" zoomAndPan="magnify" viewBox="0 0 1024.5 576" height="768" preserveAspectRatio="xMidYMid meet" version="1.0"><defs><g/><clipPath id="50ee00dba7"><path d="M 0 0.140625 L 1024 0.140625 L 1024 575.859375 L 0 575.859375 Z M 0 0.140625 " clip-rule="nonzero"/></clipPath><clipPath id="9e74d975b3"><path d="M 0 0.140625 L 1024 0.140625 L 1024 575.859375 L 0 575.859375 Z M 0 0.140625 " clip-rule="nonzero"/></clipPath><clipPath id="2328a9d8f0"><rect x="0" width="1024" y="0" height="576"/></clipPath><clipPath id="9be6a4ec8c"><path d="M 585.769531 278.609375 L 604.550781 278.609375 L 604.550781 297.390625 L 585.769531 297.390625 Z M 585.769531 278.609375 " clip-rule="nonzero"/></clipPath><clipPath id="5f49617012"><path d="M 595.160156 278.609375 C 589.972656 278.609375 585.769531 282.8125 585.769531 288 C 585.769531 293.1875 589.972656 297.390625 595.160156 297.390625 C 600.347656 297.390625 604.550781 293.1875 604.550781 288 C 604.550781 282.8125 600.347656 278.609375 595.160156 278.609375 Z M 595.160156 278.609375 " clip-rule="nonzero"/></clipPath><clipPath id="818b411225"><path d="M 0.769531 0.609375 L 19.550781 0.609375 L 19.550781 19.390625 L 0.769531 19.390625 Z M 0.769531 0.609375 " clip-rule="nonzero"/></clipPath><clipPath id="90ab11d0b5"><path d="M 10.160156 0.609375 C 4.972656 0.609375 0.769531 4.8125 0.769531 10 C 0.769531 15.1875 4.972656 19.390625 10.160156 19.390625 C 15.347656 19.390625 19.550781 15.1875 19.550781 10 C 19.550781 4.8125 15.347656 0.609375 10.160156 0.609375 Z M 10.160156 0.609375 " clip-rule="nonzero"/></clipPath><clipPath id="7711a16d6f"><rect x="0" width="20" y="0" height="20"/></clipPath><clipPath id="91e6e04005"><path d="M 626.675781 361.523438 L 644.484375 361.523438 L 644.484375 379.332031 L 626.675781 379.332031 Z M 626.675781 361.523438 " clip-rule="nonzero"/></clipPath><clipPath id="46e2a8da45"><path d="M 635.582031 361.523438 C 630.664062 361.523438 626.675781 365.511719 626.675781 370.429688 C 626.675781 375.34375 630.664062 379.332031 635.582031 379.332031 C 640.5 379.332031 644.484375 375.34375 644.484375 370.429688 C 644.484375 365.511719 640.5 361.523438 635.582031 361.523438 Z M 635.582031 361.523438 " clip-rule="nonzero"/></clipPath><clipPath id="df48d9eaa2"><path d="M 0.675781 0.523438 L 18.484375 0.523438 L 18.484375 18.332031 L 0.675781 18.332031 Z M 0.675781 0.523438 " clip-rule="nonzero"/></clipPath><clipPath id="a185051cd2"><path d="M 9.582031 0.523438 C 4.664062 0.523438 0.675781 4.511719 0.675781 9.429688 C 0.675781 14.34375 4.664062 18.332031 9.582031 18.332031 C 14.5 18.332031 18.484375 14.34375 18.484375 9.429688 C 18.484375 4.511719 14.5 0.523438 9.582031 0.523438 Z M 9.582031 0.523438 " clip-rule="nonzero"/></clipPath><clipPath id="3be895f7a9"><rect x="0" width="19" y="0" height="19"/></clipPath><clipPath id="6d1f308f26"><path d="M 554.164062 416.742188 L 562.742188 416.742188 L 562.742188 425.324219 L 554.164062 425.324219 Z M 554.164062 416.742188 " clip-rule="nonzero"/></clipPath><clipPath id="af603a0edc"><path d="M 558.453125 416.742188 C 556.082031 416.742188 554.164062 418.664062 554.164062 421.035156 C 554.164062 423.402344 556.082031 425.324219 558.453125 425.324219 C 560.820312 425.324219 562.742188 423.402344 562.742188 421.035156 C 562.742188 418.664062 560.820312 416.742188 558.453125 416.742188 Z M 558.453125 416.742188 " clip-rule="nonzero"/></clipPath><clipPath id="54c8464092"><path d="M 0.164062 0.742188 L 8.742188 0.742188 L 8.742188 9.324219 L 0.164062 9.324219 Z M 0.164062 0.742188 " clip-rule="nonzero"/></clipPath><clipPath id="380eecc938"><path d="M 4.453125 0.742188 C 2.082031 0.742188 0.164062 2.664062 0.164062 5.035156 C 0.164062 7.402344 2.082031 9.324219 4.453125 9.324219 C 6.820312 9.324219 8.742188 7.402344 8.742188 5.035156 C 8.742188 2.664062 6.820312 0.742188 4.453125 0.742188 Z M 4.453125 0.742188 " clip-rule="nonzero"/></clipPath><clipPath id="ddff6c2e21"><rect x="0" width="9" y="0" height="10"/></clipPath><clipPath id="bf8b651d07"><path d="M 720.589844 374.421875 L 727 374.421875 L 727 380.832031 L 720.589844 380.832031 Z M 720.589844 374.421875 " clip-rule="nonzero"/></clipPath><clipPath id="ac376dd64a"><path d="M 723.792969 374.421875 C 722.023438 374.421875 720.589844 375.855469 720.589844 377.625 C 720.589844 379.394531 722.023438 380.832031 723.792969 380.832031 C 725.5625 380.832031 727 379.394531 727 377.625 C 727 375.855469 725.5625 374.421875 723.792969 374.421875 Z M 723.792969 374.421875 " clip-rule="nonzero"/></clipPath><clipPath id="e40ffdb811"><path d="M 0.589844 0.421875 L 7 0.421875 L 7 6.832031 L 0.589844 6.832031 Z M 0.589844 0.421875 " clip-rule="nonzero"/></clipPath><clipPath id="a3706ed419"><path d="M 3.792969 0.421875 C 2.023438 0.421875 0.589844 1.855469 0.589844 3.625 C 0.589844 5.394531 2.023438 6.832031 3.792969 6.832031 C 5.5625 6.832031 7 5.394531 7 3.625 C 7 1.855469 5.5625 0.421875 3.792969 0.421875 Z M 3.792969 0.421875 " clip-rule="nonzero"/></clipPath><clipPath id="757ea4730d"><rect x="0" width="7" y="0" height="7"/></clipPath><clipPath id="2ab1c61fc7"><path d="M 736.355469 405.085938 L 749.871094 405.085938 L 749.871094 418.605469 L 736.355469 418.605469 Z M 736.355469 405.085938 " clip-rule="nonzero"/></clipPath><clipPath id="304d3e6f98"><path d="M 743.113281 405.085938 C 739.378906 405.085938 736.355469 408.113281 736.355469 411.84375 C 736.355469 415.578125 739.378906 418.605469 743.113281 418.605469 C 746.847656 418.605469 749.871094 415.578125 749.871094 411.84375 C 749.871094 408.113281 746.847656 405.085938 743.113281 405.085938 Z M 743.113281 405.085938 " clip-rule="nonzero"/></clipPath><clipPath id="e16f7c69ec"><path d="M 0.355469 0.0859375 L 13.871094 0.0859375 L 13.871094 13.605469 L 0.355469 13.605469 Z M 0.355469 0.0859375 " clip-rule="nonzero"/></clipPath><clipPath id="9ed9bd033c"><path d="M 7.113281 0.0859375 C 3.378906 0.0859375 0.355469 3.113281 0.355469 6.84375 C 0.355469 10.578125 3.378906 13.605469 7.113281 13.605469 C 10.847656 13.605469 13.871094 10.578125 13.871094 6.84375 C 13.871094 3.113281 10.847656 0.0859375 7.113281 0.0859375 Z M 7.113281 0.0859375 " clip-rule="nonzero"/></clipPath><clipPath id="43ee1e1f07"><rect x="0" width="14" y="0" height="14"/></clipPath><clipPath id="45437db0dd"><path d="M 801.816406 378.582031 L 819.832031 378.582031 L 819.832031 396.597656 L 801.816406 396.597656 Z M 801.816406 378.582031 " clip-rule="nonzero"/></clipPath><clipPath id="d2639a4865"><path d="M 810.824219 378.582031 C 805.847656 378.582031 801.816406 382.613281 801.816406 387.589844 C 801.816406 392.5625 805.847656 396.597656 810.824219 396.597656 C 815.796875 396.597656 819.832031 392.5625 819.832031 387.589844 C 819.832031 382.613281 815.796875 378.582031 810.824219 378.582031 Z M 810.824219 378.582031 " clip-rule="nonzero"/></clipPath><clipPath id="8ca91d6bcf"><path d="M 0.816406 0.582031 L 18.832031 0.582031 L 18.832031 18.597656 L 0.816406 18.597656 Z M 0.816406 0.582031 " clip-rule="nonzero"/></clipPath><clipPath id="35bf3b6fd8"><path d="M 9.824219 0.582031 C 4.847656 0.582031 0.816406 4.613281 0.816406 9.589844 C 0.816406 14.5625 4.847656 18.597656 9.824219 18.597656 C 14.796875 18.597656 18.832031 14.5625 18.832031 9.589844 C 18.832031 4.613281 14.796875 0.582031 9.824219 0.582031 Z M 9.824219 0.582031 " clip-rule="nonzero"/></clipPath><clipPath id="094d06718b"><rect x="0" width="19" y="0" height="19"/></clipPath><clipPath id="c3717e0310"><path d="M 858 406 L 877 406 L 877 425 L 858 425 Z M 858 406 " clip-rule="nonzero"/></clipPath><clipPath id="4238b060cb"><path d="M 858.847656 406.441406 L 876.839844 407.332031 L 875.949219 425.324219 L 857.957031 424.433594 Z M 858.847656 406.441406 " clip-rule="nonzero"/></clipPath><clipPath id="4db9a344fb"><path d="M 867.84375 406.886719 C 862.875 406.640625 858.648438 410.46875 858.402344 415.4375 C 858.15625 420.40625 861.984375 424.632812 866.953125 424.878906 C 871.921875 425.125 876.148438 421.296875 876.394531 416.328125 C 876.640625 411.359375 872.8125 407.132812 867.84375 406.886719 Z M 867.84375 406.886719 " clip-rule="nonzero"/></clipPath><clipPath id="2e9c46ec62"><path d="M 0.0625 0.503906 L 18.773438 0.503906 L 18.773438 19 L 0.0625 19 Z M 0.0625 0.503906 " clip-rule="nonzero"/></clipPath><clipPath id="165cfd835a"><path d="M 0.847656 0.441406 L 18.839844 1.332031 L 17.949219 19.324219 L -0.0429688 18.433594 Z M 0.847656 0.441406 " clip-rule="nonzero"/></clipPath><clipPath id="1eaee53a5e"><path d="M 9.84375 0.886719 C 4.875 0.640625 0.648438 4.46875 0.402344 9.4375 C 0.15625 14.40625 3.984375 18.632812 8.953125 18.878906 C 13.921875 19.125 18.148438 15.296875 18.394531 10.328125 C 18.640625 5.359375 14.8125 1.132812 9.84375 0.886719 Z M 9.84375 0.886719 " clip-rule="nonzero"/></clipPath><clipPath id="b540478180"><rect x="0" width="19" y="0" height="19"/></clipPath><clipPath id="a2c4bd02b5"><path d="M 858.828125 332.589844 L 876.839844 332.589844 L 876.839844 350.605469 L 858.828125 350.605469 Z M 858.828125 332.589844 " clip-rule="nonzero"/></clipPath><clipPath id="d85f85faf0"><path d="M 867.832031 332.589844 C 862.859375 332.589844 858.828125 336.625 858.828125 341.597656 C 858.828125 346.574219 862.859375 350.605469 867.832031 350.605469 C 872.808594 350.605469 876.839844 346.574219 876.839844 341.597656 C 876.839844 336.625 872.808594 332.589844 867.832031 332.589844 Z M 867.832031 332.589844 " clip-rule="nonzero"/></clipPath><clipPath id="5af9ffd1f3"><path d="M 0.828125 0.589844 L 18.839844 0.589844 L 18.839844 18.605469 L 0.828125 18.605469 Z M 0.828125 0.589844 " clip-rule="nonzero"/></clipPath><clipPath id="d6ff734404"><path d="M 9.832031 0.589844 C 4.859375 0.589844 0.828125 4.625 0.828125 9.597656 C 0.828125 14.574219 4.859375 18.605469 9.832031 18.605469 C 14.808594 18.605469 18.839844 14.574219 18.839844 9.597656 C 18.839844 4.625 14.808594 0.589844 9.832031 0.589844 Z M 9.832031 0.589844 " clip-rule="nonzero"/></clipPath><clipPath id="d4ff22f89f"><rect x="0" width="19" y="0" height="19"/></clipPath><clipPath id="658fbf477a"><path d="M 789.269531 331.300781 L 801.066406 331.300781 L 801.066406 343.097656 L 789.269531 343.097656 Z M 789.269531 331.300781 " clip-rule="nonzero"/></clipPath><clipPath id="7d47da6fa5"><path d="M 795.167969 331.300781 C 791.910156 331.300781 789.269531 333.941406 789.269531 337.199219 C 789.269531 340.457031 791.910156 343.097656 795.167969 343.097656 C 798.425781 343.097656 801.066406 340.457031 801.066406 337.199219 C 801.066406 333.941406 798.425781 331.300781 795.167969 331.300781 Z M 795.167969 331.300781 " clip-rule="nonzero"/></clipPath><clipPath id="89a3989019"><path d="M 0.269531 0.300781 L 12.066406 0.300781 L 12.066406 12.097656 L 0.269531 12.097656 Z M 0.269531 0.300781 " clip-rule="nonzero"/></clipPath><clipPath id="e72846eed4"><path d="M 6.167969 0.300781 C 2.910156 0.300781 0.269531 2.941406 0.269531 6.199219 C 0.269531 9.457031 2.910156 12.097656 6.167969 12.097656 C 9.425781 12.097656 12.066406 9.457031 12.066406 6.199219 C 12.066406 2.941406 9.425781 0.300781 6.167969 0.300781 Z M 6.167969 0.300781 " clip-rule="nonzero"/></clipPath><clipPath id="be83e3582e"><rect x="0" width="13" y="0" height="13"/></clipPath><clipPath id="26f4fd9d2a"><path d="M 812.683594 331.300781 L 821.691406 331.300781 L 821.691406 340.308594 L 812.683594 340.308594 Z M 812.683594 331.300781 " clip-rule="nonzero"/></clipPath><clipPath id="55833be226"><path d="M 817.1875 331.300781 C 814.699219 331.300781 812.683594 333.316406 812.683594 335.804688 C 812.683594 338.289062 814.699219 340.308594 817.1875 340.308594 C 819.675781 340.308594 821.691406 338.289062 821.691406 335.804688 C 821.691406 333.316406 819.675781 331.300781 817.1875 331.300781 Z M 817.1875 331.300781 " clip-rule="nonzero"/></clipPath><clipPath id="69cef825b2"><path d="M 0.683594 0.300781 L 9.691406 0.300781 L 9.691406 9.308594 L 0.683594 9.308594 Z M 0.683594 0.300781 " clip-rule="nonzero"/></clipPath><clipPath id="05d9708be1"><path d="M 5.1875 0.300781 C 2.699219 0.300781 0.683594 2.316406 0.683594 4.804688 C 0.683594 7.289062 2.699219 9.308594 5.1875 9.308594 C 7.675781 9.308594 9.691406 7.289062 9.691406 4.804688 C 9.691406 2.316406 7.675781 0.300781 5.1875 0.300781 Z M 5.1875 0.300781 " clip-rule="nonzero"/></clipPath><clipPath id="7d2e85aa0e"><rect x="0" width="10" y="0" height="10"/></clipPath><clipPath id="77cda48051"><path d="M 787.074219 291.882812 L 798.871094 291.882812 L 798.871094 303.683594 L 787.074219 303.683594 Z M 787.074219 291.882812 " clip-rule="nonzero"/></clipPath><clipPath id="9886d81076"><path d="M 792.972656 291.882812 C 789.714844 291.882812 787.074219 294.527344 787.074219 297.785156 C 787.074219 301.042969 789.714844 303.683594 792.972656 303.683594 C 796.230469 303.683594 798.871094 301.042969 798.871094 297.785156 C 798.871094 294.527344 796.230469 291.882812 792.972656 291.882812 Z M 792.972656 291.882812 " clip-rule="nonzero"/></clipPath><clipPath id="d088e9ddc5"><path d="M 0.0742188 0.882812 L 11.871094 0.882812 L 11.871094 12.683594 L 0.0742188 12.683594 Z M 0.0742188 0.882812 " clip-rule="nonzero"/></clipPath><clipPath id="e8ed70bf46"><path d="M 5.972656 0.882812 C 2.714844 0.882812 0.0742188 3.527344 0.0742188 6.785156 C 0.0742188 10.042969 2.714844 12.683594 5.972656 12.683594 C 9.230469 12.683594 11.871094 10.042969 11.871094 6.785156 C 11.871094 3.527344 9.230469 0.882812 5.972656 0.882812 Z M 5.972656 0.882812 " clip-rule="nonzero"/></clipPath><clipPath id="2223cbdd1c"><rect x="0" width="12" y="0" height="13"/></clipPath><clipPath id="f341c8a780"><path d="M 890.882812 283.03125 L 900.820312 283.03125 L 900.820312 292.96875 L 890.882812 292.96875 Z M 890.882812 283.03125 " clip-rule="nonzero"/></clipPath><clipPath id="e2644b656c"><path d="M 895.851562 283.03125 C 893.105469 283.03125 890.882812 285.253906 890.882812 288 C 890.882812 290.746094 893.105469 292.96875 895.851562 292.96875 C 898.59375 292.96875 900.820312 290.746094 900.820312 288 C 900.820312 285.253906 898.59375 283.03125 895.851562 283.03125 Z M 895.851562 283.03125 " clip-rule="nonzero"/></clipPath><clipPath id="95c8f1a2ec"><path d="M 0.882812 0.03125 L 10.820312 0.03125 L 10.820312 9.96875 L 0.882812 9.96875 Z M 0.882812 0.03125 " clip-rule="nonzero"/></clipPath><clipPath id="5ad0e0ff27"><path d="M 5.851562 0.03125 C 3.105469 0.03125 0.882812 2.253906 0.882812 5 C 0.882812 7.746094 3.105469 9.96875 5.851562 9.96875 C 8.59375 9.96875 10.820312 7.746094 10.820312 5 C 10.820312 2.253906 8.59375 0.03125 5.851562 0.03125 Z M 5.851562 0.03125 " clip-rule="nonzero"/></clipPath><clipPath id="e89fa7203b"><rect x="0" width="11" y="0" height="10"/></clipPath><clipPath id="e70c1ff8c7"><path d="M 755.265625 231.453125 L 765.203125 231.453125 L 765.203125 241.390625 L 755.265625 241.390625 Z M 755.265625 231.453125 " clip-rule="nonzero"/></clipPath><clipPath id="d42e7e51cc"><path d="M 760.234375 231.453125 C 757.492188 231.453125 755.265625 233.679688 755.265625 236.421875 C 755.265625 239.167969 757.492188 241.390625 760.234375 241.390625 C 762.980469 241.390625 765.203125 239.167969 765.203125 236.421875 C 765.203125 233.679688 762.980469 231.453125 760.234375 231.453125 Z M 760.234375 231.453125 " clip-rule="nonzero"/></clipPath><clipPath id="1d1d358985"><path d="M 0.265625 0.453125 L 10.203125 0.453125 L 10.203125 10.390625 L 0.265625 10.390625 Z M 0.265625 0.453125 " clip-rule="nonzero"/></clipPath><clipPath id="be27455897"><path d="M 5.234375 0.453125 C 2.492188 0.453125 0.265625 2.679688 0.265625 5.421875 C 0.265625 8.167969 2.492188 10.390625 5.234375 10.390625 C 7.980469 10.390625 10.203125 8.167969 10.203125 5.421875 C 10.203125 2.679688 7.980469 0.453125 5.234375 0.453125 Z M 5.234375 0.453125 " clip-rule="nonzero"/></clipPath><clipPath id="d1b7a375d3"><rect x="0" width="11" y="0" height="11"/></clipPath><clipPath id="b4e95d330f"><path d="M 697.796875 251.199219 L 709.75 251.199219 L 709.75 263.152344 L 697.796875 263.152344 Z M 697.796875 251.199219 " clip-rule="nonzero"/></clipPath><clipPath id="0f7a77c873"><path d="M 703.773438 251.199219 C 700.472656 251.199219 697.796875 253.875 697.796875 257.175781 C 697.796875 260.476562 700.472656 263.152344 703.773438 263.152344 C 707.074219 263.152344 709.75 260.476562 709.75 257.175781 C 709.75 253.875 707.074219 251.199219 703.773438 251.199219 Z M 703.773438 251.199219 " clip-rule="nonzero"/></clipPath><clipPath id="e80da321d3"><path d="M 0.796875 0.199219 L 12.75 0.199219 L 12.75 12.152344 L 0.796875 12.152344 Z M 0.796875 0.199219 " clip-rule="nonzero"/></clipPath><clipPath id="2397584c85"><path d="M 6.773438 0.199219 C 3.472656 0.199219 0.796875 2.875 0.796875 6.175781 C 0.796875 9.476562 3.472656 12.152344 6.773438 12.152344 C 10.074219 12.152344 12.75 9.476562 12.75 6.175781 C 12.75 2.875 10.074219 0.199219 6.773438 0.199219 Z M 6.773438 0.199219 " clip-rule="nonzero"/></clipPath><clipPath id="34be3e3d77"><rect x="0" width="13" y="0" height="13"/></clipPath><clipPath id="f7a9eee070"><path d="M 732.546875 218.40625 L 740.160156 218.40625 L 740.160156 226.019531 L 732.546875 226.019531 Z M 732.546875 218.40625 " clip-rule="nonzero"/></clipPath><clipPath id="0dde5e5fcc"><path d="M 736.355469 218.40625 C 734.253906 218.40625 732.546875 220.109375 732.546875 222.210938 C 732.546875 224.3125 734.253906 226.019531 736.355469 226.019531 C 738.457031 226.019531 740.160156 224.3125 740.160156 222.210938 C 740.160156 220.109375 738.457031 218.40625 736.355469 218.40625 Z M 736.355469 218.40625 " clip-rule="nonzero"/></clipPath><clipPath id="bd71aac22e"><path d="M 0.546875 0.40625 L 8.160156 0.40625 L 8.160156 8.019531 L 0.546875 8.019531 Z M 0.546875 0.40625 " clip-rule="nonzero"/></clipPath><clipPath id="5cd1e54194"><path d="M 4.355469 0.40625 C 2.253906 0.40625 0.546875 2.109375 0.546875 4.210938 C 0.546875 6.3125 2.253906 8.019531 4.355469 8.019531 C 6.457031 8.019531 8.160156 6.3125 8.160156 4.210938 C 8.160156 2.109375 6.457031 0.40625 4.355469 0.40625 Z M 4.355469 0.40625 " clip-rule="nonzero"/></clipPath><clipPath id="093b923243"><rect x="0" width="9" y="0" height="9"/></clipPath><clipPath id="c90bc18832"><path d="M 672.191406 257.175781 L 678.167969 257.175781 L 678.167969 263.152344 L 672.191406 263.152344 Z M 672.191406 257.175781 " clip-rule="nonzero"/></clipPath><clipPath id="4cb39bc2b9"><path d="M 675.179688 257.175781 C 673.53125 257.175781 672.191406 258.515625 672.191406 260.164062 C 672.191406 261.816406 673.53125 263.152344 675.179688 263.152344 C 676.832031 263.152344 678.167969 261.816406 678.167969 260.164062 C 678.167969 258.515625 676.832031 257.175781 675.179688 257.175781 Z M 675.179688 257.175781 " clip-rule="nonzero"/></clipPath><clipPath id="0813d6d382"><path d="M 0.191406 0.175781 L 6.167969 0.175781 L 6.167969 6.152344 L 0.191406 6.152344 Z M 0.191406 0.175781 " clip-rule="nonzero"/></clipPath><clipPath id="715e36d666"><path d="M 3.179688 0.175781 C 1.53125 0.175781 0.191406 1.515625 0.191406 3.164062 C 0.191406 4.816406 1.53125 6.152344 3.179688 6.152344 C 4.832031 6.152344 6.167969 4.816406 6.167969 3.164062 C 6.167969 1.515625 4.832031 0.175781 3.179688 0.175781 Z M 3.179688 0.175781 " clip-rule="nonzero"/></clipPath><clipPath id="92f72b9e7c"><rect x="0" width="7" y="0" height="7"/></clipPath><clipPath id="1683de1a99"><path d="M 812.683594 331.300781 L 821.691406 331.300781 L 821.691406 340.308594 L 812.683594 340.308594 Z M 812.683594 331.300781 " clip-rule="nonzero"/></clipPath><clipPath id="b50ac98eee"><path d="M 817.1875 331.300781 C 814.699219 331.300781 812.683594 333.316406 812.683594 335.804688 C 812.683594 338.289062 814.699219 340.308594 817.1875 340.308594 C 819.675781 340.308594 821.691406 338.289062 821.691406 335.804688 C 821.691406 333.316406 819.675781 331.300781 817.1875 331.300781 Z M 817.1875 331.300781 " clip-rule="nonzero"/></clipPath><clipPath id="f51ed93cb8"><path d="M 0.683594 0.300781 L 9.691406 0.300781 L 9.691406 9.308594 L 0.683594 9.308594 Z M 0.683594 0.300781 " clip-rule="nonzero"/></clipPath><clipPath id="e7a71020d8"><path d="M 5.1875 0.300781 C 2.699219 0.300781 0.683594 2.316406 0.683594 4.804688 C 0.683594 7.289062 2.699219 9.308594 5.1875 9.308594 C 7.675781 9.308594 9.691406 7.289062 9.691406 4.804688 C 9.691406 2.316406 7.675781 0.300781 5.1875 0.300781 Z M 5.1875 0.300781 " clip-rule="nonzero"/></clipPath><clipPath id="85e7176ddc"><rect x="0" width="10" y="0" height="10"/></clipPath><clipPath id="10e94e642e"><path d="M 769.050781 160.140625 L 778.058594 160.140625 L 778.058594 169.148438 L 769.050781 169.148438 Z M 769.050781 160.140625 " clip-rule="nonzero"/></clipPath><clipPath id="3aec6c632e"><path d="M 773.554688 160.140625 C 771.066406 160.140625 769.050781 162.15625 769.050781 164.644531 C 769.050781 167.132812 771.066406 169.148438 773.554688 169.148438 C 776.042969 169.148438 778.058594 167.132812 778.058594 164.644531 C 778.058594 162.15625 776.042969 160.140625 773.554688 160.140625 Z M 773.554688 160.140625 " clip-rule="nonzero"/></clipPath><clipPath id="248a95bba1"><path d="M 0.0507812 0.140625 L 9.058594 0.140625 L 9.058594 9.148438 L 0.0507812 9.148438 Z M 0.0507812 0.140625 " clip-rule="nonzero"/></clipPath><clipPath id="bbee60a42a"><path d="M 4.554688 0.140625 C 2.066406 0.140625 0.0507812 2.15625 0.0507812 4.644531 C 0.0507812 7.132812 2.066406 9.148438 4.554688 9.148438 C 7.042969 9.148438 9.058594 7.132812 9.058594 4.644531 C 9.058594 2.15625 7.042969 0.140625 4.554688 0.140625 Z M 4.554688 0.140625 " clip-rule="nonzero"/></clipPath><clipPath id="ac6f2f207c"><rect x="0" width="10" y="0" height="10"/></clipPath><clipPath id="34181a6641"><path d="M 691.753906 193.203125 L 697.796875 193.203125 L 697.796875 199.246094 L 691.753906 199.246094 Z M 691.753906 193.203125 " clip-rule="nonzero"/></clipPath><clipPath id="32a4ed6b28"><path d="M 694.777344 193.203125 C 693.105469 193.203125 691.753906 194.554688 691.753906 196.222656 C 691.753906 197.894531 693.105469 199.246094 694.777344 199.246094 C 696.445312 199.246094 697.796875 197.894531 697.796875 196.222656 C 697.796875 194.554688 696.445312 193.203125 694.777344 193.203125 Z M 694.777344 193.203125 " clip-rule="nonzero"/></clipPath><clipPath id="d507d7789b"><path d="M 0.753906 0.203125 L 6.796875 0.203125 L 6.796875 6.246094 L 0.753906 6.246094 Z M 0.753906 0.203125 " clip-rule="nonzero"/></clipPath><clipPath id="f048f2afaa"><path d="M 3.777344 0.203125 C 2.105469 0.203125 0.753906 1.554688 0.753906 3.222656 C 0.753906 4.894531 2.105469 6.246094 3.777344 6.246094 C 5.445312 6.246094 6.796875 4.894531 6.796875 3.222656 C 6.796875 1.554688 5.445312 0.203125 3.777344 0.203125 Z M 3.777344 0.203125 " clip-rule="nonzero"/></clipPath><clipPath id="9c188f56c1"><rect x="0" width="7" y="0" height="7"/></clipPath><clipPath id="3c9d21911f"><path d="M 714.546875 145.222656 L 720.589844 145.222656 L 720.589844 151.265625 L 714.546875 151.265625 Z M 714.546875 145.222656 " clip-rule="nonzero"/></clipPath><clipPath id="fa71136c4d"><path d="M 717.566406 145.222656 C 715.898438 145.222656 714.546875 146.574219 714.546875 148.242188 C 714.546875 149.914062 715.898438 151.265625 717.566406 151.265625 C 719.234375 151.265625 720.589844 149.914062 720.589844 148.242188 C 720.589844 146.574219 719.234375 145.222656 717.566406 145.222656 Z M 717.566406 145.222656 " clip-rule="nonzero"/></clipPath><clipPath id="9bdea055f6"><path d="M 0.546875 0.222656 L 6.589844 0.222656 L 6.589844 6.265625 L 0.546875 6.265625 Z M 0.546875 0.222656 " clip-rule="nonzero"/></clipPath><clipPath id="22bc4e727d"><path d="M 3.566406 0.222656 C 1.898438 0.222656 0.546875 1.574219 0.546875 3.242188 C 0.546875 4.914062 1.898438 6.265625 3.566406 6.265625 C 5.234375 6.265625 6.589844 4.914062 6.589844 3.242188 C 6.589844 1.574219 5.234375 0.222656 3.566406 0.222656 Z M 3.566406 0.222656 " clip-rule="nonzero"/></clipPath><clipPath id="f718535d12"><rect x="0" width="7" y="0" height="7"/></clipPath><clipPath id="816094dabf"><path d="M 560.152344 159.390625 L 568.34375 159.390625 L 568.34375 167.582031 L 560.152344 167.582031 Z M 560.152344 159.390625 " clip-rule="nonzero"/></clipPath><clipPath id="653b5b07b8"><path d="M 564.246094 159.390625 C 561.984375 159.390625 560.152344 161.226562 560.152344 163.488281 C 560.152344 165.75 561.984375 167.582031 564.246094 167.582031 C 566.507812 167.582031 568.34375 165.75 568.34375 163.488281 C 568.34375 161.226562 566.507812 159.390625 564.246094 159.390625 Z M 564.246094 159.390625 " clip-rule="nonzero"/></clipPath><clipPath id="6ee24fba47"><path d="M 0.152344 0.390625 L 8.34375 0.390625 L 8.34375 8.582031 L 0.152344 8.582031 Z M 0.152344 0.390625 " clip-rule="nonzero"/></clipPath><clipPath id="0184e74e1b"><path d="M 4.246094 0.390625 C 1.984375 0.390625 0.152344 2.226562 0.152344 4.488281 C 0.152344 6.75 1.984375 8.582031 4.246094 8.582031 C 6.507812 8.582031 8.34375 6.75 8.34375 4.488281 C 8.34375 2.226562 6.507812 0.390625 4.246094 0.390625 Z M 4.246094 0.390625 " clip-rule="nonzero"/></clipPath><clipPath id="f4b05b3683"><rect x="0" width="9" y="0" height="9"/></clipPath><clipPath id="6845445a99"><path d="M 688.195312 191.671875 L 697.261719 191.671875 L 697.261719 200.734375 L 688.195312 200.734375 Z M 688.195312 191.671875 " clip-rule="nonzero"/></clipPath><clipPath id="aa801867df"><path d="M 692.726562 191.671875 C 690.222656 191.671875 688.195312 193.699219 688.195312 196.203125 C 688.195312 198.707031 690.222656 200.734375 692.726562 200.734375 C 695.230469 200.734375 697.261719 198.707031 697.261719 196.203125 C 697.261719 193.699219 695.230469 191.671875 692.726562 191.671875 Z M 692.726562 191.671875 " clip-rule="nonzero"/></clipPath><clipPath id="77984f6b32"><path d="M 0.195312 0.671875 L 9.261719 0.671875 L 9.261719 9.734375 L 0.195312 9.734375 Z M 0.195312 0.671875 " clip-rule="nonzero"/></clipPath><clipPath id="0fc24f465b"><path d="M 4.726562 0.671875 C 2.222656 0.671875 0.195312 2.699219 0.195312 5.203125 C 0.195312 7.707031 2.222656 9.734375 4.726562 9.734375 C 7.230469 9.734375 9.261719 7.707031 9.261719 5.203125 C 9.261719 2.699219 7.230469 0.671875 4.726562 0.671875 Z M 4.726562 0.671875 " clip-rule="nonzero"/></clipPath><clipPath id="9a7df100a7"><rect x="0" width="10" y="0" height="10"/></clipPath><clipPath id="eb4d4cc7bb"><path d="M 831.882812 202.929688 L 836.414062 202.929688 L 836.414062 207.464844 L 831.882812 207.464844 Z M 831.882812 202.929688 " clip-rule="nonzero"/></clipPath><clipPath id="8f3f0ffe6f"><path d="M 834.148438 202.929688 C 832.894531 202.929688 831.882812 203.945312 831.882812 205.195312 C 831.882812 206.449219 832.894531 207.464844 834.148438 207.464844 C 835.398438 207.464844 836.414062 206.449219 836.414062 205.195312 C 836.414062 203.945312 835.398438 202.929688 834.148438 202.929688 Z M 834.148438 202.929688 " clip-rule="nonzero"/></clipPath><clipPath id="3fc5125461"><path d="M 0.882812 0.929688 L 5.414062 0.929688 L 5.414062 5.464844 L 0.882812 5.464844 Z M 0.882812 0.929688 " clip-rule="nonzero"/></clipPath><clipPath id="b7e8fe29f3"><path d="M 3.148438 0.929688 C 1.894531 0.929688 0.882812 1.945312 0.882812 3.195312 C 0.882812 4.449219 1.894531 5.464844 3.148438 5.464844 C 4.398438 5.464844 5.414062 4.449219 5.414062 3.195312 C 5.414062 1.945312 4.398438 0.929688 3.148438 0.929688 Z M 3.148438 0.929688 " clip-rule="nonzero"/></clipPath><clipPath id="4c6f33929a"><rect x="0" width="6" y="0" height="6"/></clipPath><clipPath id="cbe4e487cf"><path d="M 858.058594 174.855469 L 862.589844 174.855469 L 862.589844 179.386719 L 858.058594 179.386719 Z M 858.058594 174.855469 " clip-rule="nonzero"/></clipPath><clipPath id="dde3048941"><path d="M 860.324219 174.855469 C 859.074219 174.855469 858.058594 175.867188 858.058594 177.121094 C 858.058594 178.371094 859.074219 179.386719 860.324219 179.386719 C 861.578125 179.386719 862.589844 178.371094 862.589844 177.121094 C 862.589844 175.867188 861.578125 174.855469 860.324219 174.855469 Z M 860.324219 174.855469 " clip-rule="nonzero"/></clipPath><clipPath id="ed148914fc"><path d="M 0.0585938 0.855469 L 4.589844 0.855469 L 4.589844 5.386719 L 0.0585938 5.386719 Z M 0.0585938 0.855469 " clip-rule="nonzero"/></clipPath><clipPath id="d01841fe4a"><path d="M 2.324219 0.855469 C 1.074219 0.855469 0.0585938 1.867188 0.0585938 3.121094 C 0.0585938 4.371094 1.074219 5.386719 2.324219 5.386719 C 3.578125 5.386719 4.589844 4.371094 4.589844 3.121094 C 4.589844 1.867188 3.578125 0.855469 2.324219 0.855469 Z M 2.324219 0.855469 " clip-rule="nonzero"/></clipPath><clipPath id="ff062d905e"><rect x="0" width="5" y="0" height="6"/></clipPath><clipPath id="126165eb58"><path d="M 728.871094 272.316406 L 760.234375 272.316406 L 760.234375 303.683594 L 728.871094 303.683594 Z M 728.871094 272.316406 " clip-rule="nonzero"/></clipPath><clipPath id="6d5bab25fe"><path d="M 744.550781 272.316406 C 735.890625 272.316406 728.871094 279.339844 728.871094 288 C 728.871094 296.660156 735.890625 303.683594 744.550781 303.683594 C 753.214844 303.683594 760.234375 296.660156 760.234375 288 C 760.234375 279.339844 753.214844 272.316406 744.550781 272.316406 Z M 744.550781 272.316406 " clip-rule="nonzero"/></clipPath><clipPath id="8e314c3bcf"><path d="M 0.871094 0.316406 L 32.234375 0.316406 L 32.234375 31.683594 L 0.871094 31.683594 Z M 0.871094 0.316406 " clip-rule="nonzero"/></clipPath><clipPath id="c80d4c65b7"><path d="M 16.550781 0.316406 C 7.890625 0.316406 0.871094 7.339844 0.871094 16 C 0.871094 24.660156 7.890625 31.683594 16.550781 31.683594 C 25.214844 31.683594 32.234375 24.660156 32.234375 16 C 32.234375 7.339844 25.214844 0.316406 16.550781 0.316406 Z M 16.550781 0.316406 " clip-rule="nonzero"/></clipPath><clipPath id="9a2cb04098"><rect x="0" width="33" y="0" height="32"/></clipPath></defs><g clip-path="url(#50ee00dba7)"><path fill="#ffffff" d="M 0 0.140625 L 1024 0.140625 L 1024 575.859375 L 0 575.859375 Z M 0 0.140625 " fill-opacity="1" fill-rule="nonzero"/><path fill="#ffffff" d="M 0 0.140625 L 1024 0.140625 L 1024 575.859375 L 0 575.859375 Z M 0 0.140625 " fill-opacity="1" fill-rule="nonzero"/><g transform="matrix(1, 0, 0, 1, 0, -0.000000000000058398)"><g clip-path="url(#2328a9d8f0)"><g clip-path="url(#9e74d975b3)"><path fill="#1d2c1d" d="M 0 0.140625 L 1023.25 0.140625 L 1023.25 575.859375 L 0 575.859375 Z M 0 0.140625 " fill-opacity="1" fill-rule="nonzero"/></g></g></g></g><g clip-path="url(#9be6a4ec8c)"><g clip-path="url(#5f49617012)"><g transform="matrix(1, 0, 0, 1, 585, 278)"><g clip-path="url(#7711a16d6f)"><g clip-path="url(#818b411225)"><g clip-path="url(#90ab11d0b5)"><path fill="#cbc28d" d="M 0.769531 0.609375 L 19.550781 0.609375 L 19.550781 19.390625 L 0.769531 19.390625 Z M 0.769531 0.609375 " fill-opacity="1" fill-rule="nonzero"/></g></g></g></g></g></g><g clip-path="url(#91e6e04005)"><g clip-path="url(#46e2a8da45)"><g transform="matrix(1, 0, 0, 1, 626, 361)"><g clip-path="url(#3be895f7a9)"><g clip-path="url(#df48d9eaa2)"><g clip-path="url(#a185051cd2)"><path fill="#cbc28d" d="M 0.675781 0.523438 L 18.484375 0.523438 L 18.484375 18.332031 L 0.675781 18.332031 Z M 0.675781 0.523438 " fill-opacity="1" fill-rule="nonzero"/></g></g></g></g></g></g><g clip-path="url(#6d1f308f26)"><g clip-path="url(#af603a0edc)"><g transform="matrix(1, 0, 0, 1, 554, 416)"><g clip-path="url(#ddff6c2e21)"><g clip-path="url(#54c8464092)"><g clip-path="url(#380eecc938)"><path fill="#cbc28d" d="M 0.164062 0.742188 L 8.742188 0.742188 L 8.742188 9.324219 L 0.164062 9.324219 Z M 0.164062 0.742188 " fill-opacity="1" fill-rule="nonzero"/></g></g></g></g></g></g><g clip-path="url(#bf8b651d07)"><g clip-path="url(#ac376dd64a)"><g transform="matrix(1, 0, 0, 1, 720, 374)"><g clip-path="url(#757ea4730d)"><g clip-path="url(#e40ffdb811)"><g clip-path="url(#a3706ed419)"><path fill="#cbc28d" d="M 0.589844 0.421875 L 7 0.421875 L 7 6.832031 L 0.589844 6.832031 Z M 0.589844 0.421875 " fill-opacity="1" fill-rule="nonzero"/></g></g></g></g></g></g><g clip-path="url(#2ab1c61fc7)"><g clip-path="url(#304d3e6f98)"><g transform="matrix(1, 0, 0, 1, 736, 405)"><g clip-path="url(#43ee1e1f07)"><g clip-path="url(#e16f7c69ec)"><g clip-path="url(#9ed9bd033c)"><path fill="#cbc28d" d="M 0.355469 0.0859375 L 13.871094 0.0859375 L 13.871094 13.605469 L 0.355469 13.605469 Z M 0.355469 0.0859375 " fill-opacity="1" fill-rule="nonzero"/></g></g></g></g></g></g><g clip-path="url(#45437db0dd)"><g clip-path="url(#d2639a4865)"><g transform="matrix(1, 0, 0, 1, 801, 378)"><g clip-path="url(#094d06718b)"><g clip-path="url(#8ca91d6bcf)"><g clip-path="url(#35bf3b6fd8)"><path fill="#cbc28d" d="M 0.816406 0.582031 L 18.832031 0.582031 L 18.832031 18.597656 L 0.816406 18.597656 Z M 0.816406 0.582031 " fill-opacity="1" fill-rule="nonzero"/></g></g></g></g></g></g><g clip-path="url(#c3717e0310)"><g clip-path="url(#4238b060cb)"><g clip-path="url(#4db9a344fb)"><g transform="matrix(1, 0, 0, 1, 858, 406)"><g clip-path="url(#b540478180)"><g clip-path="url(#2e9c46ec62)"><g clip-path="url(#165cfd835a)"><g clip-path="url(#1eaee53a5e)"><path fill="#cbc28d" d="M 0.847656 0.441406 L 18.839844 1.332031 L 17.949219 19.324219 L -0.0429688 18.433594 Z M 0.847656 0.441406 " fill-opacity="1" fill-rule="nonzero"/></g></g></g></g></g></g></g></g><g clip-path="url(#a2c4bd02b5)"><g clip-path="url(#d85f85faf0)"><g transform="matrix(1, 0, 0, 1, 858, 332)"><g clip-path="url(#d4ff22f89f)"><g clip-path="url(#5af9ffd1f3)"><g clip-path="url(#d6ff734404)"><path fill="#cbc28d" d="M 0.828125 0.589844 L 18.839844 0.589844 L 18.839844 18.605469 L 0.828125 18.605469 Z M 0.828125 0.589844 " fill-opacity="1" fill-rule="nonzero"/></g></g></g></g></g></g><g clip-path="url(#658fbf477a)"><g clip-path="url(#7d47da6fa5)"><g transform="matrix(1, 0, 0, 1, 789, 331)"><g clip-path="url(#be83e3582e)"><g clip-path="url(#89a3989019)"><g clip-path="url(#e72846eed4)"><path fill="#cbc28d" d="M 0.269531 0.300781 L 12.066406 0.300781 L 12.066406 12.097656 L 0.269531 12.097656 Z M 0.269531 0.300781 " fill-opacity="1" fill-rule="nonzero"/></g></g></g></g></g></g><g clip-path="url(#26f4fd9d2a)"><g clip-path="url(#55833be226)"><g transform="matrix(1, 0, 0, 1, 812, 331)"><g clip-path="url(#7d2e85aa0e)"><g clip-path="url(#69cef825b2)"><g clip-path="url(#05d9708be1)"><path fill="#cbc28d" d="M 0.683594 0.300781 L 9.691406 0.300781 L 9.691406 9.308594 L 0.683594 9.308594 Z M 0.683594 0.300781 " fill-opacity="1" fill-rule="nonzero"/></g></g></g></g></g></g><g clip-path="url(#77cda48051)"><g clip-path="url(#9886d81076)"><g transform="matrix(1, 0, 0, 1, 787, 291)"><g clip-path="url(#2223cbdd1c)"><g clip-path="url(#d088e9ddc5)"><g clip-path="url(#e8ed70bf46)"><path fill="#cbc28d" d="M 0.0742188 0.882812 L 11.871094 0.882812 L 11.871094 12.683594 L 0.0742188 12.683594 Z M 0.0742188 0.882812 " fill-opacity="1" fill-rule="nonzero"/></g></g></g></g></g></g><g clip-path="url(#f341c8a780)"><g clip-path="url(#e2644b656c)"><g transform="matrix(1, 0, 0, 1, 890, 283)"><g clip-path="url(#e89fa7203b)"><g clip-path="url(#95c8f1a2ec)"><g clip-path="url(#5ad0e0ff27)"><path fill="#cbc28d" d="M 0.882812 0.03125 L 10.820312 0.03125 L 10.820312 9.96875 L 0.882812 9.96875 Z M 0.882812 0.03125 " fill-opacity="1" fill-rule="nonzero"/></g></g></g></g></g></g><g clip-path="url(#e70c1ff8c7)"><g clip-path="url(#d42e7e51cc)"><g transform="matrix(1, 0, 0, 1, 755, 231)"><g clip-path="url(#d1b7a375d3)"><g clip-path="url(#1d1d358985)"><g clip-path="url(#be27455897)"><path fill="#cbc28d" d="M 0.265625 0.453125 L 10.203125 0.453125 L 10.203125 10.390625 L 0.265625 10.390625 Z M 0.265625 0.453125 " fill-opacity="1" fill-rule="nonzero"/></g></g></g></g></g></g><g clip-path="url(#b4e95d330f)"><g clip-path="url(#0f7a77c873)"><g transform="matrix(1, 0, 0, 1, 697, 251)"><g clip-path="url(#34be3e3d77)"><g clip-path="url(#e80da321d3)"><g clip-path="url(#2397584c85)"><path fill="#cbc28d" d="M 0.796875 0.199219 L 12.75 0.199219 L 12.75 12.152344 L 0.796875 12.152344 Z M 0.796875 0.199219 " fill-opacity="1" fill-rule="nonzero"/></g></g></g></g></g></g><g clip-path="url(#f7a9eee070)"><g clip-path="url(#0dde5e5fcc)"><g transform="matrix(1, 0, 0, 1, 732, 218)"><g clip-path="url(#093b923243)"><g clip-path="url(#bd71aac22e)"><g clip-path="url(#5cd1e54194)"><path fill="#cbc28d" d="M 0.546875 0.40625 L 8.160156 0.40625 L 8.160156 8.019531 L 0.546875 8.019531 Z M 0.546875 0.40625 " fill-opacity="1" fill-rule="nonzero"/></g></g></g></g></g></g><g clip-path="url(#c90bc18832)"><g clip-path="url(#4cb39bc2b9)"><g transform="matrix(1, 0, 0, 1, 672, 257)"><g clip-path="url(#92f72b9e7c)"><g clip-path="url(#0813d6d382)"><g clip-path="url(#715e36d666)"><path fill="#cbc28d" d="M 0.191406 0.175781 L 6.167969 0.175781 L 6.167969 6.152344 L 0.191406 6.152344 Z M 0.191406 0.175781 " fill-opacity="1" fill-rule="nonzero"/></g></g></g></g></g></g><g clip-path="url(#1683de1a99)"><g clip-path="url(#b50ac98eee)"><g transform="matrix(1, 0, 0, 1, 812, 331)"><g clip-path="url(#85e7176ddc)"><g clip-path="url(#f51ed93cb8)"><g clip-path="url(#e7a71020d8)"><path fill="#cbc28d" d="M 0.683594 0.300781 L 9.691406 0.300781 L 9.691406 9.308594 L 0.683594 9.308594 Z M 0.683594 0.300781 " fill-opacity="1" fill-rule="nonzero"/></g></g></g></g></g></g><g clip-path="url(#10e94e642e)"><g clip-path="url(#3aec6c632e)"><g transform="matrix(1, 0, 0, 1, 769, 160)"><g clip-path="url(#ac6f2f207c)"><g clip-path="url(#248a95bba1)"><g clip-path="url(#bbee60a42a)"><path fill="#cbc28d" d="M 0.0507812 0.140625 L 9.058594 0.140625 L 9.058594 9.148438 L 0.0507812 9.148438 Z M 0.0507812 0.140625 " fill-opacity="1" fill-rule="nonzero"/></g></g></g></g></g></g><g clip-path="url(#34181a6641)"><g clip-path="url(#32a4ed6b28)"><g transform="matrix(1, 0, 0, 1, 691, 193)"><g clip-path="url(#9c188f56c1)"><g clip-path="url(#d507d7789b)"><g clip-path="url(#f048f2afaa)"><path fill="#cbc28d" d="M 0.753906 0.203125 L 6.796875 0.203125 L 6.796875 6.246094 L 0.753906 6.246094 Z M 0.753906 0.203125 " fill-opacity="1" fill-rule="nonzero"/></g></g></g></g></g></g><g clip-path="url(#3c9d21911f)"><g clip-path="url(#fa71136c4d)"><g transform="matrix(1, 0, 0, 1, 714, 145)"><g clip-path="url(#f718535d12)"><g clip-path="url(#9bdea055f6)"><g clip-path="url(#22bc4e727d)"><path fill="#cbc28d" d="M 0.546875 0.222656 L 6.589844 0.222656 L 6.589844 6.265625 L 0.546875 6.265625 Z M 0.546875 0.222656 " fill-opacity="1" fill-rule="nonzero"/></g></g></g></g></g></g><g clip-path="url(#816094dabf)"><g clip-path="url(#653b5b07b8)"><g transform="matrix(1, 0, 0, 1, 560, 159)"><g clip-path="url(#f4b05b3683)"><g clip-path="url(#6ee24fba47)"><g clip-path="url(#0184e74e1b)"><path fill="#cbc28d" d="M 0.152344 0.390625 L 8.34375 0.390625 L 8.34375 8.582031 L 0.152344 8.582031 Z M 0.152344 0.390625 " fill-opacity="1" fill-rule="nonzero"/></g></g></g></g></g></g><g clip-path="url(#6845445a99)"><g clip-path="url(#aa801867df)"><g transform="matrix(1, 0, 0, 1, 688, 191)"><g clip-path="url(#9a7df100a7)"><g clip-path="url(#77984f6b32)"><g clip-path="url(#0fc24f465b)"><path fill="#cbc28d" d="M 0.195312 0.671875 L 9.261719 0.671875 L 9.261719 9.734375 L 0.195312 9.734375 Z M 0.195312 0.671875 " fill-opacity="1" fill-rule="nonzero"/></g></g></g></g></g></g><g clip-path="url(#eb4d4cc7bb)"><g clip-path="url(#8f3f0ffe6f)"><g transform="matrix(1, 0, 0, 1, 831, 202)"><g clip-path="url(#4c6f33929a)"><g clip-path="url(#3fc5125461)"><g clip-path="url(#b7e8fe29f3)"><path fill="#cbc28d" d="M 0.882812 0.929688 L 5.414062 0.929688 L 5.414062 5.464844 L 0.882812 5.464844 Z M 0.882812 0.929688 " fill-opacity="1" fill-rule="nonzero"/></g></g></g></g></g></g><g clip-path="url(#cbe4e487cf)"><g clip-path="url(#dde3048941)"><g transform="matrix(1, 0, 0, 1, 858, 174)"><g clip-path="url(#ff062d905e)"><g clip-path="url(#ed148914fc)"><g clip-path="url(#d01841fe4a)"><path fill="#cbc28d" d="M 0.0585938 0.855469 L 4.589844 0.855469 L 4.589844 5.386719 L 0.0585938 5.386719 Z M 0.0585938 0.855469 " fill-opacity="1" fill-rule="nonzero"/></g></g></g></g></g></g><path stroke-linecap="butt" transform="matrix(0.749627, -0.0033188, 0.0033188, 0.749627, 757.363886, 288.216289)" fill="none" stroke-linejoin="miter" d="M 0.00219751 0.498331 L 178.111651 0.50002 " stroke="#cbc28d" stroke-width="1" stroke-opacity="1" stroke-miterlimit="4"/><path stroke-linecap="butt" transform="matrix(0.420243, 0.620763, -0.620763, 0.420243, 752.140412, 301.688123)" fill="none" stroke-linejoin="miter" d="M -0.00121174 0.502249 L 133.245762 0.502316 " stroke="#cbc28d" stroke-width="1" stroke-opacity="1" stroke-miterlimit="4"/><path stroke-linecap="butt" transform="matrix(0.654029, 0.366329, -0.366329, 0.654029, 818.301608, 392.547028)" fill="none" stroke-linejoin="miter" d="M -0.000837107 0.501932 L 61.593418 0.499974 " stroke="#cbc28d" stroke-width="1" stroke-opacity="1" stroke-miterlimit="4"/><path stroke-linecap="butt" transform="matrix(0.598044, -0.45199, 0.45199, 0.598044, 641.829245, 364.013346)" fill="none" stroke-linejoin="miter" d="M -0.000693766 0.499696 L 149.574332 0.501191 " stroke="#cbc28d" stroke-width="1" stroke-opacity="1" stroke-miterlimit="4"/><path stroke-linecap="butt" transform="matrix(0.749469, -0.0157273, 0.0157273, 0.749469, 603.086259, 290.264577)" fill="none" stroke-linejoin="miter" d="M -0.000533555 0.501741 L 167.821417 0.500082 " stroke="#cbc28d" stroke-width="1" stroke-opacity="1" stroke-miterlimit="4"/><g clip-path="url(#126165eb58)"><g clip-path="url(#6d5bab25fe)"><g transform="matrix(1, 0, 0, 1, 728, 272)"><g clip-path="url(#9a2cb04098)"><g clip-path="url(#8e314c3bcf)"><g clip-path="url(#c80d4c65b7)"><path fill="#c4552a" d="M 0.871094 0.316406 L 32.234375 0.316406 L 32.234375 31.683594 L 0.871094 31.683594 Z M 0.871094 0.316406 " fill-opacity="1" fill-rule="nonzero"/></g></g></g></g></g></g><path stroke-linecap="butt" transform="matrix(0.372222, 0.650694, -0.650694, 0.372222, 695.302266, 199.954397)" fill="none" stroke-linejoin="miter" d="M -0.000100185 0.50049 L 113.664719 0.500353 " stroke="#cbc28d" stroke-width="1" stroke-opacity="1" stroke-miterlimit="4"/><g fill="#ffffff" fill-opacity="1"><g transform="translate(141.623118, 273.842699)"><g><path d="M 0.335938 -1.300781 L 0.335938 -4.703125 C 1.328125 -4.058594 2.324219 -3.5625 3.316406 -3.210938 C 4.308594 -2.863281 5.277344 -2.6875 6.214844 -2.6875 C 7.683594 -2.6875 8.726562 -3.121094 9.351562 -3.988281 C 9.972656 -4.855469 10.285156 -6.074219 10.285156 -7.640625 L 10.285156 -26.363281 L 13.558594 -26.363281 L 13.558594 -7.640625 C 13.558594 -5.722656 13.269531 -4.167969 12.6875 -2.96875 C 12.109375 -1.773438 11.28125 -0.894531 10.210938 -0.335938 C 9.140625 0.222656 7.878906 0.503906 6.421875 0.503906 C 5.289062 0.503906 4.222656 0.332031 3.222656 -0.0117188 C 2.222656 -0.351562 1.257812 -0.785156 0.335938 -1.300781 Z M 0.335938 -1.300781 "/></g></g></g><g fill="#ffffff" fill-opacity="1"><g transform="translate(158.561925, 273.842699)"><g><path d="M 11.207031 0.503906 C 9.472656 0.503906 7.921875 0.0585938 6.558594 -0.828125 C 5.195312 -1.71875 4.117188 -2.953125 3.328125 -4.535156 C 2.535156 -6.113281 2.140625 -7.933594 2.140625 -9.992188 C 2.140625 -12.1875 2.53125 -14.078125 3.316406 -15.660156 C 4.101562 -17.238281 5.175781 -18.453125 6.539062 -19.300781 C 7.902344 -20.148438 9.460938 -20.570312 11.207031 -20.570312 C 12.734375 -20.570312 14.035156 -20.261719 15.113281 -19.644531 C 16.191406 -19.03125 17.058594 -18.199219 17.714844 -17.148438 C 18.371094 -16.097656 18.832031 -14.914062 19.089844 -13.589844 C 19.347656 -12.269531 19.421875 -10.902344 19.3125 -9.488281 L 4.785156 -9.488281 L 4.785156 -11.503906 L 17.148438 -11.503906 L 16.183594 -10.871094 C 16.226562 -11.699219 16.179688 -12.523438 16.046875 -13.347656 C 15.914062 -14.175781 15.664062 -14.933594 15.300781 -15.625 C 14.9375 -16.320312 14.425781 -16.875 13.769531 -17.296875 C 13.113281 -17.714844 12.273438 -17.925781 11.25 -17.925781 C 9.964844 -17.925781 8.886719 -17.597656 8.019531 -16.9375 C 7.152344 -16.28125 6.5 -15.417969 6.066406 -14.347656 C 5.632812 -13.277344 5.414062 -12.117188 5.414062 -10.871094 L 5.414062 -9.53125 C 5.414062 -8.128906 5.628906 -6.878906 6.054688 -5.773438 C 6.480469 -4.667969 7.121094 -3.792969 7.976562 -3.148438 C 8.828125 -2.503906 9.90625 -2.183594 11.207031 -2.183594 C 12.511719 -2.183594 13.582031 -2.496094 14.421875 -3.128906 C 15.257812 -3.757812 15.769531 -4.6875 15.953125 -5.917969 L 19.351562 -5.917969 C 19.144531 -4.589844 18.667969 -3.445312 17.925781 -2.488281 C 17.183594 -1.527344 16.238281 -0.789062 15.089844 -0.273438 C 13.945312 0.246094 12.648438 0.503906 11.207031 0.503906 Z M 11.207031 0.503906 "/></g></g></g><g fill="#ffffff" fill-opacity="1"><g transform="translate(180.118493, 273.842699)"><g><path d="M 11.460938 0.503906 C 9.515625 0.503906 7.890625 0.226562 6.589844 -0.324219 C 5.289062 -0.878906 4.304688 -1.640625 3.632812 -2.613281 C 2.960938 -3.585938 2.601562 -4.703125 2.5625 -5.960938 L 5.710938 -5.960938 C 5.777344 -4.6875 6.292969 -3.734375 7.253906 -3.097656 C 8.210938 -2.460938 9.515625 -2.140625 11.167969 -2.140625 C 12.035156 -2.140625 12.832031 -2.28125 13.558594 -2.5625 C 14.285156 -2.839844 14.867188 -3.226562 15.300781 -3.714844 C 15.734375 -4.203125 15.953125 -4.757812 15.953125 -5.375 C 15.953125 -6.15625 15.664062 -6.773438 15.089844 -7.21875 C 14.519531 -7.667969 13.601562 -8.058594 12.34375 -8.394531 L 8.4375 -9.65625 C 6.746094 -10.1875 5.445312 -10.917969 4.542969 -11.847656 C 3.640625 -12.777344 3.191406 -13.894531 3.191406 -15.195312 C 3.191406 -16.820312 3.902344 -18.121094 5.332031 -19.101562 C 6.757812 -20.082031 8.632812 -20.570312 10.957031 -20.570312 C 13.417969 -20.570312 15.328125 -20.066406 16.6875 -19.058594 C 18.042969 -18.050781 18.75 -16.792969 18.808594 -15.28125 L 15.574219 -15.28125 C 15.449219 -16.164062 15 -16.832031 14.230469 -17.285156 C 13.460938 -17.738281 12.371094 -17.96875 10.957031 -17.96875 C 9.597656 -17.96875 8.539062 -17.664062 7.777344 -17.054688 C 7.015625 -16.445312 6.632812 -15.769531 6.632812 -15.027344 C 6.632812 -13.644531 7.820312 -12.621094 10.199219 -11.964844 L 14.1875 -10.621094 C 15.910156 -10.101562 17.230469 -9.425781 18.144531 -8.585938 C 19.0625 -7.746094 19.519531 -6.675781 19.519531 -5.375 C 19.519531 -4.367188 19.191406 -3.414062 18.535156 -2.519531 C 17.875 -1.625 16.945312 -0.894531 15.742188 -0.335938 C 14.539062 0.222656 13.113281 0.503906 11.460938 0.503906 Z M 11.460938 0.503906 "/></g></g></g><g fill="#ffffff" fill-opacity="1"><g transform="translate(202.178812, 273.842699)"><g><path d="M 11.460938 0.503906 C 9.515625 0.503906 7.890625 0.226562 6.589844 -0.324219 C 5.289062 -0.878906 4.304688 -1.640625 3.632812 -2.613281 C 2.960938 -3.585938 2.601562 -4.703125 2.5625 -5.960938 L 5.710938 -5.960938 C 5.777344 -4.6875 6.292969 -3.734375 7.253906 -3.097656 C 8.210938 -2.460938 9.515625 -2.140625 11.167969 -2.140625 C 12.035156 -2.140625 12.832031 -2.28125 13.558594 -2.5625 C 14.285156 -2.839844 14.867188 -3.226562 15.300781 -3.714844 C 15.734375 -4.203125 15.953125 -4.757812 15.953125 -5.375 C 15.953125 -6.15625 15.664062 -6.773438 15.089844 -7.21875 C 14.519531 -7.667969 13.601562 -8.058594 12.34375 -8.394531 L 8.4375 -9.65625 C 6.746094 -10.1875 5.445312 -10.917969 4.542969 -11.847656 C 3.640625 -12.777344 3.191406 -13.894531 3.191406 -15.195312 C 3.191406 -16.820312 3.902344 -18.121094 5.332031 -19.101562 C 6.757812 -20.082031 8.632812 -20.570312 10.957031 -20.570312 C 13.417969 -20.570312 15.328125 -20.066406 16.6875 -19.058594 C 18.042969 -18.050781 18.75 -16.792969 18.808594 -15.28125 L 15.574219 -15.28125 C 15.449219 -16.164062 15 -16.832031 14.230469 -17.285156 C 13.460938 -17.738281 12.371094 -17.96875 10.957031 -17.96875 C 9.597656 -17.96875 8.539062 -17.664062 7.777344 -17.054688 C 7.015625 -16.445312 6.632812 -15.769531 6.632812 -15.027344 C 6.632812 -13.644531 7.820312 -12.621094 10.199219 -11.964844 L 14.1875 -10.621094 C 15.910156 -10.101562 17.230469 -9.425781 18.144531 -8.585938 C 19.0625 -7.746094 19.519531 -6.675781 19.519531 -5.375 C 19.519531 -4.367188 19.191406 -3.414062 18.535156 -2.519531 C 17.875 -1.625 16.945312 -0.894531 15.742188 -0.335938 C 14.539062 0.222656 13.113281 0.503906 11.460938 0.503906 Z M 11.460938 0.503906 "/></g></g></g><g fill="#ffffff" fill-opacity="1"><g transform="translate(224.239132, 273.842699)"><g><path d="M 6.085938 -24.808594 C 5.414062 -24.808594 4.882812 -25.003906 4.492188 -25.386719 C 4.101562 -25.773438 3.902344 -26.277344 3.902344 -26.910156 C 3.902344 -27.523438 4.101562 -28.015625 4.492188 -28.378906 C 4.882812 -28.742188 5.414062 -28.925781 6.085938 -28.925781 C 6.757812 -28.925781 7.289062 -28.742188 7.683594 -28.378906 C 8.074219 -28.015625 8.269531 -27.523438 8.269531 -26.910156 C 8.269531 -26.277344 8.074219 -25.773438 7.683594 -25.386719 C 7.289062 -25.003906 6.757812 -24.808594 6.085938 -24.808594 Z M 4.449219 0 L 4.449219 -20.109375 L 7.722656 -20.109375 L 7.722656 0 Z M 4.449219 0 "/></g></g></g><g fill="#ffffff" fill-opacity="1"><g transform="translate(236.749075, 273.842699)"><g><path d="M 11.292969 0.503906 C 9.683594 0.503906 8.183594 0.0703125 6.789062 -0.796875 C 5.398438 -1.664062 4.273438 -2.890625 3.421875 -4.472656 C 2.566406 -6.050781 2.140625 -7.921875 2.140625 -10.074219 C 2.140625 -12.285156 2.566406 -14.175781 3.421875 -15.742188 C 4.273438 -17.308594 5.398438 -18.507812 6.789062 -19.332031 C 8.183594 -20.15625 9.683594 -20.570312 11.292969 -20.570312 C 12.425781 -20.570312 13.445312 -20.398438 14.347656 -20.054688 C 15.25 -19.710938 16.035156 -19.242188 16.707031 -18.640625 C 17.378906 -18.039062 17.9375 -17.355469 18.375 -16.59375 C 18.816406 -15.828125 19.144531 -15.027344 19.351562 -14.1875 L 15.996094 -13.894531 C 15.644531 -15.058594 15.058594 -15.976562 14.242188 -16.65625 C 13.421875 -17.335938 12.425781 -17.671875 11.25 -17.671875 C 10.257812 -17.671875 9.324219 -17.390625 8.449219 -16.824219 C 7.574219 -16.257812 6.863281 -15.410156 6.316406 -14.285156 C 5.773438 -13.15625 5.5 -11.753906 5.5 -10.074219 C 5.5 -8.523438 5.746094 -7.175781 6.246094 -6.035156 C 6.742188 -4.894531 7.421875 -4.007812 8.289062 -3.378906 C 9.160156 -2.75 10.144531 -2.433594 11.25 -2.433594 C 12.804688 -2.433594 13.984375 -2.816406 14.789062 -3.578125 C 15.59375 -4.339844 15.996094 -5.402344 15.996094 -6.757812 L 19.351562 -6.757812 C 19.351562 -5.359375 19.023438 -4.113281 18.367188 -3.023438 C 17.707031 -1.929688 16.773438 -1.070312 15.5625 -0.441406 C 14.351562 0.1875 12.929688 0.503906 11.292969 0.503906 Z M 11.292969 0.503906 "/></g></g></g><g fill="#ffffff" fill-opacity="1"><g transform="translate(258.410591, 273.842699)"><g><path d="M 16.664062 0 L 16.246094 -4.40625 L 16.246094 -13.011719 C 16.246094 -14.820312 15.859375 -16.117188 15.089844 -16.90625 C 14.320312 -17.699219 13.167969 -18.09375 11.628906 -18.09375 C 10.761719 -18.09375 9.972656 -17.96875 9.265625 -17.714844 C 8.558594 -17.464844 8 -17.074219 7.585938 -16.550781 C 7.175781 -16.027344 6.96875 -15.351562 6.96875 -14.523438 L 3.316406 -14.523438 C 3.316406 -15.980469 3.671875 -17.152344 4.386719 -18.039062 C 5.101562 -18.929688 6.082031 -19.574219 7.335938 -19.972656 C 8.589844 -20.371094 10.019531 -20.570312 11.628906 -20.570312 C 13.167969 -20.570312 14.53125 -20.3125 15.722656 -19.792969 C 16.910156 -19.277344 17.839844 -18.453125 18.511719 -17.328125 C 19.183594 -16.199219 19.519531 -14.734375 19.519531 -12.929688 L 19.519531 0 Z M 9.824219 0.503906 C 8.171875 0.503906 6.808594 0.210938 5.730469 -0.378906 C 4.652344 -0.964844 3.847656 -1.726562 3.316406 -2.664062 C 2.785156 -3.601562 2.519531 -4.589844 2.519531 -5.625 C 2.519531 -6.984375 2.859375 -8.089844 3.535156 -8.941406 C 4.214844 -9.796875 5.140625 -10.421875 6.316406 -10.820312 C 7.492188 -11.21875 8.816406 -11.417969 10.285156 -11.417969 C 11.335938 -11.417969 12.386719 -11.3125 13.445312 -11.105469 C 14.5 -10.894531 15.53125 -10.605469 16.539062 -10.242188 L 16.539062 -8.1875 C 15.699219 -8.523438 14.753906 -8.789062 13.695312 -8.984375 C 12.640625 -9.179688 11.671875 -9.277344 10.789062 -9.277344 C 9.445312 -9.277344 8.3125 -9 7.386719 -8.449219 C 6.464844 -7.894531 6.003906 -6.953125 6.003906 -5.625 C 6.003906 -4.644531 6.355469 -3.804688 7.0625 -3.105469 C 7.769531 -2.40625 8.898438 -2.058594 10.453125 -2.058594 C 11.542969 -2.058594 12.527344 -2.3125 13.402344 -2.824219 C 14.277344 -3.332031 14.96875 -3.972656 15.480469 -4.742188 C 15.992188 -5.511719 16.246094 -6.28125 16.246094 -7.050781 L 17.042969 -7.050781 C 17.042969 -5.710938 16.753906 -4.464844 16.171875 -3.316406 C 15.59375 -2.167969 14.761719 -1.246094 13.683594 -0.546875 C 12.609375 0.152344 11.320312 0.503906 9.824219 0.503906 Z M 9.824219 0.503906 "/></g></g></g><g fill="#ffffff" fill-opacity="1"><g transform="translate(281.520405, 273.842699)"><g/></g></g><g fill="#ffffff" fill-opacity="1"><g transform="translate(291.490575, 273.842699)"><g><path d="M 13.390625 0.503906 C 11.070312 0.503906 9.066406 -0.0820312 7.386719 -1.25 C 5.710938 -2.417969 4.414062 -4.039062 3.503906 -6.117188 C 2.597656 -8.195312 2.140625 -10.605469 2.140625 -13.347656 C 2.140625 -16.273438 2.632812 -18.738281 3.621094 -20.738281 C 4.605469 -22.738281 5.949219 -24.253906 7.652344 -25.28125 C 9.351562 -26.3125 11.265625 -26.824219 13.390625 -26.824219 C 16.203125 -26.824219 18.46875 -26.121094 20.183594 -24.714844 C 21.894531 -23.308594 23.074219 -21.480469 23.71875 -19.226562 L 20.191406 -18.511719 C 19.644531 -20.148438 18.773438 -21.453125 17.578125 -22.425781 C 16.382812 -23.398438 14.988281 -23.886719 13.390625 -23.886719 C 12.007812 -23.886719 10.730469 -23.492188 9.5625 -22.699219 C 8.390625 -21.910156 7.453125 -20.730469 6.738281 -19.164062 C 6.023438 -17.597656 5.667969 -15.660156 5.667969 -13.347656 C 5.667969 -11.25 5.949219 -9.382812 6.515625 -7.746094 C 7.085938 -6.109375 7.9375 -4.820312 9.078125 -3.882812 C 10.21875 -2.945312 11.65625 -2.476562 13.390625 -2.476562 C 15.476562 -2.476562 17.132812 -3.035156 18.355469 -4.15625 C 19.578125 -5.277344 20.191406 -6.746094 20.191406 -8.5625 L 23.761719 -8.5625 C 23.761719 -6.675781 23.328125 -5.054688 22.460938 -3.703125 C 21.589844 -2.355469 20.378906 -1.316406 18.816406 -0.585938 C 17.257812 0.140625 15.449219 0.503906 13.390625 0.503906 Z M 13.390625 0.503906 "/></g></g></g><g fill="#ffffff" fill-opacity="1"><g transform="translate(317.22412, 273.842699)"><g><path d="M 16.664062 0 L 16.246094 -4.40625 L 16.246094 -13.011719 C 16.246094 -14.820312 15.859375 -16.117188 15.089844 -16.90625 C 14.320312 -17.699219 13.167969 -18.09375 11.628906 -18.09375 C 10.761719 -18.09375 9.972656 -17.96875 9.265625 -17.714844 C 8.558594 -17.464844 8 -17.074219 7.585938 -16.550781 C 7.175781 -16.027344 6.96875 -15.351562 6.96875 -14.523438 L 3.316406 -14.523438 C 3.316406 -15.980469 3.671875 -17.152344 4.386719 -18.039062 C 5.101562 -18.929688 6.082031 -19.574219 7.335938 -19.972656 C 8.589844 -20.371094 10.019531 -20.570312 11.628906 -20.570312 C 13.167969 -20.570312 14.53125 -20.3125 15.722656 -19.792969 C 16.910156 -19.277344 17.839844 -18.453125 18.511719 -17.328125 C 19.183594 -16.199219 19.519531 -14.734375 19.519531 -12.929688 L 19.519531 0 Z M 9.824219 0.503906 C 8.171875 0.503906 6.808594 0.210938 5.730469 -0.378906 C 4.652344 -0.964844 3.847656 -1.726562 3.316406 -2.664062 C 2.785156 -3.601562 2.519531 -4.589844 2.519531 -5.625 C 2.519531 -6.984375 2.859375 -8.089844 3.535156 -8.941406 C 4.214844 -9.796875 5.140625 -10.421875 6.316406 -10.820312 C 7.492188 -11.21875 8.816406 -11.417969 10.285156 -11.417969 C 11.335938 -11.417969 12.386719 -11.3125 13.445312 -11.105469 C 14.5 -10.894531 15.53125 -10.605469 16.539062 -10.242188 L 16.539062 -8.1875 C 15.699219 -8.523438 14.753906 -8.789062 13.695312 -8.984375 C 12.640625 -9.179688 11.671875 -9.277344 10.789062 -9.277344 C 9.445312 -9.277344 8.3125 -9 7.386719 -8.449219 C 6.464844 -7.894531 6.003906 -6.953125 6.003906 -5.625 C 6.003906 -4.644531 6.355469 -3.804688 7.0625 -3.105469 C 7.769531 -2.40625 8.898438 -2.058594 10.453125 -2.058594 C 11.542969 -2.058594 12.527344 -2.3125 13.402344 -2.824219 C 14.277344 -3.332031 14.96875 -3.972656 15.480469 -4.742188 C 15.992188 -5.511719 16.246094 -6.28125 16.246094 -7.050781 L 17.042969 -7.050781 C 17.042969 -5.710938 16.753906 -4.464844 16.171875 -3.316406 C 15.59375 -2.167969 14.761719 -1.246094 13.683594 -0.546875 C 12.609375 0.152344 11.320312 0.503906 9.824219 0.503906 Z M 9.824219 0.503906 "/></g></g></g><g fill="#ffffff" fill-opacity="1"><g transform="translate(340.333945, 273.842699)"><g><path d="M 4.238281 0 L 4.238281 -20.109375 L 7.515625 -20.109375 L 7.515625 0 Z M 6.507812 -9.066406 C 6.507812 -11.613281 6.75 -13.730469 7.242188 -15.417969 C 7.730469 -17.101562 8.449219 -18.363281 9.394531 -19.195312 C 10.335938 -20.027344 11.488281 -20.445312 12.847656 -20.445312 C 13.292969 -20.445312 13.703125 -20.414062 14.074219 -20.347656 C 14.445312 -20.285156 14.820312 -20.191406 15.195312 -20.066406 L 14.988281 -16.832031 C 14.59375 -16.960938 14.167969 -17.066406 13.707031 -17.160156 C 13.246094 -17.25 12.832031 -17.296875 12.46875 -17.296875 C 11.277344 -17.296875 10.320312 -16.957031 9.59375 -16.277344 C 8.863281 -15.597656 8.335938 -14.644531 8.007812 -13.414062 C 7.679688 -12.179688 7.515625 -10.734375 7.515625 -9.066406 Z M 6.507812 -9.066406 "/></g></g></g><g fill="#ffffff" fill-opacity="1"><g transform="translate(355.509598, 273.842699)"><g><path d="M 4.238281 -28.628906 L 7.515625 -28.628906 L 7.515625 0 L 4.238281 0 Z M 4.238281 -28.628906 "/></g></g></g><g fill="#ffffff" fill-opacity="1"><g transform="translate(367.263902, 273.842699)"><g><path d="M 6.085938 -24.808594 C 5.414062 -24.808594 4.882812 -25.003906 4.492188 -25.386719 C 4.101562 -25.773438 3.902344 -26.277344 3.902344 -26.910156 C 3.902344 -27.523438 4.101562 -28.015625 4.492188 -28.378906 C 4.882812 -28.742188 5.414062 -28.925781 6.085938 -28.925781 C 6.757812 -28.925781 7.289062 -28.742188 7.683594 -28.378906 C 8.074219 -28.015625 8.269531 -27.523438 8.269531 -26.910156 C 8.269531 -26.277344 8.074219 -25.773438 7.683594 -25.386719 C 7.289062 -25.003906 6.757812 -24.808594 6.085938 -24.808594 Z M 4.449219 0 L 4.449219 -20.109375 L 7.722656 -20.109375 L 7.722656 0 Z M 4.449219 0 "/></g></g></g><g fill="#ffffff" fill-opacity="1"><g transform="translate(379.773833, 273.842699)"><g><path d="M 18.511719 0 L 18.511719 -11.796875 C 18.511719 -13.714844 18.054688 -15.171875 17.136719 -16.171875 C 16.222656 -17.171875 14.972656 -17.671875 13.390625 -17.671875 C 12.1875 -17.671875 11.144531 -17.34375 10.265625 -16.6875 C 9.382812 -16.027344 8.703125 -15.089844 8.226562 -13.863281 C 7.753906 -12.640625 7.515625 -11.179688 7.515625 -9.488281 L 6.253906 -9.488281 C 6.253906 -11.824219 6.5625 -13.816406 7.179688 -15.46875 C 7.792969 -17.121094 8.691406 -18.382812 9.875 -19.257812 C 11.058594 -20.132812 12.496094 -20.570312 14.1875 -20.570312 C 15.769531 -20.570312 17.125 -20.214844 18.25 -19.511719 C 19.378906 -18.804688 20.242188 -17.792969 20.84375 -16.476562 C 21.445312 -15.160156 21.746094 -13.601562 21.746094 -11.796875 L 21.746094 0 Z M 4.238281 0 L 4.238281 -20.066406 L 7.050781 -20.066406 L 7.515625 -15.449219 L 7.515625 0 Z M 4.238281 0 "/></g></g></g><g fill="#ffffff" fill-opacity="1"><g transform="translate(212.885196, 329.304466)"><g><path d="M 11.964844 0.460938 C 9.863281 0.460938 8.117188 -0.117188 6.714844 -1.28125 C 5.316406 -2.441406 4.3125 -4.058594 3.703125 -6.128906 C 3.097656 -8.199219 2.925781 -10.605469 3.191406 -13.347656 C 3.457031 -16.273438 4.128906 -18.742188 5.207031 -20.75 C 6.28125 -22.757812 7.636719 -24.277344 9.265625 -25.3125 C 10.898438 -26.347656 12.664062 -26.867188 14.566406 -26.867188 C 17.113281 -26.867188 19.097656 -26.160156 20.515625 -24.746094 C 21.9375 -23.332031 22.835938 -21.492188 23.214844 -19.226562 L 19.898438 -18.511719 C 19.5625 -20.148438 18.898438 -21.453125 17.902344 -22.425781 C 16.910156 -23.398438 15.699219 -23.886719 14.273438 -23.886719 C 13.027344 -23.886719 11.839844 -23.492188 10.714844 -22.699219 C 9.589844 -21.910156 8.636719 -20.730469 7.859375 -19.164062 C 7.085938 -17.597656 6.589844 -15.660156 6.382812 -13.347656 C 6.183594 -11.25 6.265625 -9.386719 6.621094 -7.753906 C 6.980469 -6.125 7.621094 -4.84375 8.554688 -3.914062 C 9.484375 -2.984375 10.71875 -2.519531 12.257812 -2.519531 C 14.148438 -2.519531 15.695312 -3.074219 16.90625 -4.1875 C 18.117188 -5.300781 18.808594 -6.757812 18.976562 -8.5625 L 22.164062 -8.5625 C 21.996094 -6.675781 21.457031 -5.058594 20.550781 -3.714844 C 19.640625 -2.371094 18.445312 -1.339844 16.96875 -0.621094 C 15.492188 0.101562 13.824219 0.460938 11.964844 0.460938 Z M 11.964844 0.460938 "/></g></g></g><g fill="#ffffff" fill-opacity="1"><g transform="translate(236.057979, 329.304466)"><g><path d="M 10.265625 0.460938 C 8.625 0.460938 7.207031 0.0625 6.003906 -0.734375 C 4.800781 -1.53125 3.910156 -2.710938 3.335938 -4.269531 C 2.761719 -5.832031 2.589844 -7.753906 2.8125 -10.03125 C 3.035156 -12.34375 3.585938 -14.277344 4.460938 -15.835938 C 5.335938 -17.398438 6.449219 -18.574219 7.796875 -19.375 C 9.148438 -20.171875 10.636719 -20.570312 12.257812 -20.570312 C 13.894531 -20.570312 15.308594 -20.164062 16.496094 -19.351562 C 17.6875 -18.539062 18.574219 -17.355469 19.152344 -15.792969 C 19.734375 -14.234375 19.914062 -12.3125 19.6875 -10.03125 C 19.464844 -7.753906 18.914062 -5.832031 18.039062 -4.269531 C 17.167969 -2.710938 16.0625 -1.53125 14.722656 -0.734375 C 13.386719 0.0625 11.902344 0.460938 10.265625 0.460938 Z M 10.410156 -2.394531 C 12.160156 -2.394531 13.582031 -3.074219 14.671875 -4.4375 C 15.761719 -5.804688 16.429688 -7.667969 16.664062 -10.03125 C 16.902344 -12.425781 16.628906 -14.304688 15.835938 -15.667969 C 15.046875 -17.03125 13.777344 -17.714844 12.027344 -17.714844 C 10.292969 -17.714844 8.894531 -17.039062 7.839844 -15.691406 C 6.78125 -14.339844 6.136719 -12.453125 5.898438 -10.03125 C 5.746094 -8.480469 5.808594 -7.128906 6.085938 -5.980469 C 6.367188 -4.835938 6.867188 -3.949219 7.585938 -3.328125 C 8.308594 -2.703125 9.25 -2.394531 10.410156 -2.394531 Z M 10.410156 -2.394531 "/></g></g></g><g fill="#ffffff" fill-opacity="1"><g transform="translate(256.67, 329.304466)"><g><path d="M 3.777344 0 L 5.667969 -20.066406 L 8.226562 -20.066406 L 8.1875 -16.164062 C 8.898438 -17.589844 9.804688 -18.679688 10.902344 -19.4375 C 12.003906 -20.191406 13.25 -20.570312 14.652344 -20.570312 C 16.078125 -20.570312 17.269531 -20.21875 18.230469 -19.519531 C 19.1875 -18.820312 19.878906 -17.816406 20.296875 -16.507812 C 20.71875 -15.199219 20.835938 -13.628906 20.652344 -11.796875 L 19.5625 0 L 16.625 0 L 17.714844 -11.796875 C 17.910156 -13.726562 17.632812 -15.183594 16.875 -16.164062 C 16.121094 -17.140625 15.078125 -17.632812 13.75 -17.632812 C 12.054688 -17.632812 10.671875 -16.90625 9.601562 -15.457031 C 8.53125 -14.011719 7.878906 -12.019531 7.640625 -9.488281 L 6.757812 0 Z M 3.777344 0 "/></g></g></g><g fill="#ffffff" fill-opacity="1"><g transform="translate(279.46497, 329.304466)"><g><path d="M 9.96875 0.460938 C 8.402344 0.460938 7.070312 0.1875 5.972656 -0.355469 C 4.875 -0.902344 4.046875 -1.65625 3.496094 -2.613281 C 2.941406 -3.570312 2.714844 -4.671875 2.8125 -5.917969 L 5.667969 -5.917969 C 5.582031 -4.730469 5.953125 -3.800781 6.78125 -3.136719 C 7.605469 -2.472656 8.691406 -2.140625 10.03125 -2.140625 C 11.363281 -2.140625 12.464844 -2.445312 13.339844 -3.054688 C 14.214844 -3.664062 14.707031 -4.4375 14.820312 -5.375 C 14.917969 -6.183594 14.6875 -6.808594 14.136719 -7.242188 C 13.582031 -7.675781 12.832031 -8.058594 11.878906 -8.394531 L 8.480469 -9.699219 C 7.039062 -10.230469 5.945312 -10.941406 5.207031 -11.839844 C 4.464844 -12.734375 4.164062 -13.839844 4.304688 -15.15625 C 4.414062 -16.246094 4.792969 -17.199219 5.4375 -18.007812 C 6.078125 -18.820312 6.949219 -19.449219 8.039062 -19.898438 C 9.128906 -20.347656 10.390625 -20.570312 11.816406 -20.570312 C 14.015625 -20.570312 15.671875 -20.066406 16.792969 -19.058594 C 17.910156 -18.050781 18.429688 -16.777344 18.34375 -15.238281 L 15.449219 -15.238281 C 15.421875 -16.132812 15.070312 -16.8125 14.398438 -17.273438 C 13.726562 -17.738281 12.832031 -17.96875 11.710938 -17.96875 C 10.773438 -17.96875 10 -17.824219 9.394531 -17.535156 C 8.785156 -17.25 8.320312 -16.886719 7.996094 -16.445312 C 7.675781 -16.003906 7.480469 -15.546875 7.410156 -15.070312 C 7.3125 -14.300781 7.53125 -13.667969 8.070312 -13.171875 C 8.609375 -12.675781 9.347656 -12.273438 10.285156 -11.964844 L 13.769531 -10.621094 C 15.183594 -10.144531 16.285156 -9.484375 17.074219 -8.636719 C 17.867188 -7.789062 18.191406 -6.703125 18.050781 -5.375 C 17.953125 -4.367188 17.570312 -3.417969 16.90625 -2.527344 C 16.242188 -1.640625 15.324219 -0.921875 14.15625 -0.367188 C 12.988281 0.183594 11.59375 0.460938 9.96875 0.460938 Z M 9.96875 0.460938 "/></g></g></g><g fill="#ffffff" fill-opacity="1"><g transform="translate(299.321363, 329.304466)"><g><path d="M 10.03125 0.378906 C 8.675781 0.378906 7.515625 0.0976562 6.546875 -0.460938 C 5.582031 -1.023438 4.871094 -1.871094 4.40625 -3.011719 C 3.945312 -4.152344 3.792969 -5.597656 3.945312 -7.347656 L 5.164062 -20.109375 L 8.144531 -20.109375 L 6.96875 -7.597656 C 6.800781 -5.917969 7.042969 -4.652344 7.691406 -3.800781 C 8.34375 -2.945312 9.363281 -2.519531 10.746094 -2.519531 C 11.867188 -2.519531 12.875 -2.855469 13.769531 -3.527344 C 14.664062 -4.199219 15.398438 -5.121094 15.972656 -6.296875 C 16.546875 -7.472656 16.902344 -8.816406 17.042969 -10.328125 L 17.96875 -20.109375 L 20.949219 -20.109375 L 19.058594 0 L 16.078125 0 L 16.457031 -3.988281 C 15.726562 -2.589844 14.8125 -1.511719 13.707031 -0.753906 C 12.601562 0 11.375 0.378906 10.03125 0.378906 Z M 10.03125 0.378906 "/></g></g></g><g fill="#ffffff" fill-opacity="1"><g transform="translate(322.200291, 329.304466)"><g><path d="M 3.820312 0 L 6.507812 -28.589844 L 9.488281 -28.589844 L 6.800781 0 Z M 3.820312 0 "/></g></g></g><g fill="#ffffff" fill-opacity="1"><g transform="translate(332.779173, 329.304466)"><g><path d="M 9.320312 0.460938 C 8.324219 0.460938 7.457031 0.257812 6.714844 -0.148438 C 5.976562 -0.550781 5.425781 -1.175781 5.070312 -2.015625 C 4.710938 -2.855469 4.589844 -3.917969 4.703125 -5.207031 L 5.917969 -18.492188 L 6.78125 -17.839844 L 2.898438 -17.839844 L 3.191406 -20.066406 L 6.988281 -20.066406 L 5.941406 -19.121094 L 6.589844 -25.648438 L 9.570312 -25.648438 L 8.921875 -19.121094 L 8.082031 -20.066406 L 14.691406 -20.066406 L 14.441406 -17.839844 L 7.828125 -17.839844 L 8.859375 -18.492188 L 7.597656 -5.246094 C 7.5 -4.226562 7.652344 -3.460938 8.058594 -2.949219 C 8.464844 -2.4375 9.09375 -2.183594 9.949219 -2.183594 C 10.425781 -2.183594 10.917969 -2.246094 11.429688 -2.371094 C 11.941406 -2.496094 12.496094 -2.6875 13.097656 -2.9375 L 13.308594 -0.585938 C 12.621094 -0.25 11.953125 0.0078125 11.304688 0.1875 C 10.652344 0.371094 9.992188 0.460938 9.320312 0.460938 Z M 9.320312 0.460938 "/></g></g></g><g fill="#ffffff" fill-opacity="1"><g transform="translate(346.968311, 329.304466)"><g><path d="M 7.828125 -24.808594 C 7.226562 -24.808594 6.773438 -25 6.464844 -25.375 C 6.15625 -25.753906 6.023438 -26.25 6.066406 -26.867188 C 6.121094 -27.441406 6.335938 -27.933594 6.707031 -28.347656 C 7.078125 -28.757812 7.578125 -28.964844 8.207031 -28.964844 C 8.824219 -28.964844 9.289062 -28.769531 9.601562 -28.378906 C 9.917969 -27.988281 10.046875 -27.484375 9.992188 -26.867188 C 9.933594 -26.222656 9.707031 -25.71875 9.308594 -25.355469 C 8.910156 -24.992188 8.417969 -24.808594 7.828125 -24.808594 Z M 3.988281 0 L 5.878906 -20.109375 L 8.859375 -20.109375 L 6.96875 0 Z M 3.988281 0 "/></g></g></g><g fill="#ffffff" fill-opacity="1"><g transform="translate(358.260841, 329.304466)"><g><path d="M 3.777344 0 L 5.667969 -20.066406 L 8.226562 -20.066406 L 8.1875 -16.164062 C 8.898438 -17.589844 9.804688 -18.679688 10.902344 -19.4375 C 12.003906 -20.191406 13.25 -20.570312 14.652344 -20.570312 C 16.078125 -20.570312 17.269531 -20.21875 18.230469 -19.519531 C 19.1875 -18.820312 19.878906 -17.816406 20.296875 -16.507812 C 20.71875 -15.199219 20.835938 -13.628906 20.652344 -11.796875 L 19.5625 0 L 16.625 0 L 17.714844 -11.796875 C 17.910156 -13.726562 17.632812 -15.183594 16.875 -16.164062 C 16.121094 -17.140625 15.078125 -17.632812 13.75 -17.632812 C 12.054688 -17.632812 10.671875 -16.90625 9.601562 -15.457031 C 8.53125 -14.011719 7.878906 -12.019531 7.640625 -9.488281 L 6.757812 0 Z M 3.777344 0 "/></g></g></g><g fill="#ffffff" fill-opacity="1"><g transform="translate(381.055811, 329.304466)"><g><path d="M 9.195312 10.328125 C 7.359375 10.328125 5.785156 10.042969 4.472656 9.476562 C 3.15625 8.910156 2.164062 8.140625 1.5 7.167969 C 0.835938 6.195312 0.550781 5.109375 0.652344 3.902344 C 0.75 2.757812 1.15625 1.789062 1.878906 0.996094 C 2.597656 0.207031 3.511719 -0.335938 4.617188 -0.628906 C 3.917969 -1.035156 3.40625 -1.550781 3.085938 -2.171875 C 2.761719 -2.796875 2.628906 -3.46875 2.6875 -4.199219 C 2.769531 -5.175781 3.136719 -5.996094 3.789062 -6.652344 C 4.4375 -7.3125 5.21875 -7.753906 6.128906 -7.976562 C 5.570312 -8.632812 5.152344 -9.40625 4.878906 -10.296875 C 4.605469 -11.183594 4.519531 -12.175781 4.617188 -13.265625 C 4.773438 -14.734375 5.21875 -16.019531 5.960938 -17.117188 C 6.703125 -18.214844 7.652344 -19.066406 8.816406 -19.667969 C 9.976562 -20.269531 11.242188 -20.570312 12.613281 -20.570312 C 13.511719 -20.570312 14.339844 -20.441406 15.101562 -20.183594 C 15.863281 -19.921875 16.527344 -19.546875 17.085938 -19.058594 C 17.296875 -20.039062 17.65625 -20.894531 18.167969 -21.628906 C 18.675781 -22.363281 19.316406 -22.9375 20.085938 -23.351562 C 20.855469 -23.765625 21.730469 -23.96875 22.710938 -23.96875 L 22.082031 -20.695312 C 21.019531 -20.695312 20.167969 -20.453125 19.53125 -19.972656 C 18.894531 -19.488281 18.5 -18.707031 18.34375 -17.632812 C 18.707031 -17.042969 18.976562 -16.386719 19.144531 -15.660156 C 19.3125 -14.929688 19.351562 -14.132812 19.269531 -13.265625 C 19.144531 -11.808594 18.699219 -10.527344 17.9375 -9.414062 C 17.171875 -8.300781 16.195312 -7.433594 15.007812 -6.8125 C 13.816406 -6.1875 12.511719 -5.878906 11.082031 -5.878906 C 10.4375 -5.878906 9.808594 -5.960938 9.195312 -6.128906 C 8.578125 -6.296875 8.019531 -6.535156 7.515625 -6.84375 C 6.996094 -6.746094 6.527344 -6.484375 6.109375 -6.066406 C 5.6875 -5.644531 5.429688 -5.09375 5.332031 -4.40625 C 5.246094 -3.765625 5.425781 -3.234375 5.867188 -2.8125 C 6.308594 -2.394531 7.164062 -2.183594 8.4375 -2.183594 L 15.449219 -2.183594 C 17.128906 -2.183594 18.421875 -1.789062 19.332031 -0.996094 C 20.242188 -0.207031 20.640625 0.910156 20.527344 2.351562 C 20.429688 3.695312 19.894531 4.972656 18.921875 6.191406 C 17.949219 7.410156 16.632812 8.402344 14.964844 9.171875 C 13.300781 9.941406 11.375 10.328125 9.195312 10.328125 Z M 9.257812 7.683594 C 10.824219 7.683594 12.214844 7.4375 13.433594 6.949219 C 14.652344 6.457031 15.621094 5.824219 16.339844 5.046875 C 17.0625 4.269531 17.457031 3.441406 17.527344 2.5625 C 17.582031 1.875 17.421875 1.3125 17.042969 0.871094 C 16.664062 0.429688 16.0625 0.210938 15.238281 0.210938 L 7.890625 0.210938 C 6.660156 0.210938 5.65625 0.554688 4.878906 1.25 C 4.101562 1.941406 3.6875 2.785156 3.632812 3.777344 C 3.574219 4.898438 4.027344 5.828125 4.984375 6.570312 C 5.945312 7.3125 7.367188 7.683594 9.257812 7.683594 Z M 11.480469 -8.269531 C 12.40625 -8.269531 13.214844 -8.492188 13.917969 -8.929688 C 14.617188 -9.371094 15.179688 -9.96875 15.605469 -10.726562 C 16.03125 -11.480469 16.289062 -12.328125 16.371094 -13.265625 C 16.511719 -14.722656 16.230469 -15.902344 15.523438 -16.8125 C 14.816406 -17.722656 13.785156 -18.175781 12.425781 -18.175781 C 11.054688 -18.175781 9.933594 -17.722656 9.058594 -16.8125 C 8.183594 -15.902344 7.683594 -14.722656 7.554688 -13.265625 C 7.417969 -11.851562 7.691406 -10.667969 8.386719 -9.707031 C 9.078125 -8.75 10.109375 -8.269531 11.480469 -8.269531 Z M 11.480469 -8.269531 "/></g></g></g></svg>